<svg width="24" height="24" viewBox="0 0 24 24" fill="none" xmlns="http://www.w3.org/2000/svg">
<path d="M16.0445 16.6848C15.6226 16.862 15.137 16.6642 14.9589 16.2423C14.7817 15.8204 14.9795 15.3348 15.4014 15.1567C15.6001 15.0723 15.797 14.9635 15.9883 14.8351C16.1729 14.7104 16.3464 14.567 16.5067 14.4067C16.667 14.2454 16.8114 14.072 16.9352 13.8882C17.0645 13.697 17.1723 13.5001 17.2567 13.3014C17.3467 13.0885 17.4161 12.8673 17.462 12.6385C17.5051 12.4239 17.5276 12.1923 17.5276 11.9429C17.5276 11.6935 17.5042 11.4601 17.462 11.2464C17.4161 11.0176 17.3467 10.7964 17.2567 10.5836C17.1723 10.3848 17.0645 10.188 16.9352 9.9967C16.8105 9.81201 16.667 9.63857 16.5067 9.47825C16.187 9.15857 15.812 8.90263 15.4014 8.72825C14.9795 8.55106 14.7808 8.0645 14.9589 7.64263C15.137 7.22076 15.6226 7.02295 16.0445 7.20012C16.666 7.46357 17.222 7.83951 17.6832 8.30167C17.9148 8.53323 18.1267 8.79012 18.3132 9.06761C18.4923 9.33386 18.6507 9.62542 18.7839 9.94042C18.9151 10.2517 19.0182 10.5798 19.0867 10.922C19.1551 11.2632 19.1917 11.6045 19.1917 11.9438C19.1917 12.2823 19.156 12.6245 19.0867 12.9657C19.0182 13.3079 18.9151 13.6351 18.7839 13.9463C18.6507 14.2613 18.4923 14.5538 18.3132 14.8201C18.1267 15.0976 17.9148 15.3545 17.6832 15.586C17.4517 15.8176 17.1948 16.0295 16.9173 16.2169C16.652 16.3932 16.3595 16.5507 16.0445 16.6848V16.6848Z" fill="white"/>
<path d="M17.5533 19.4897C17.1314 19.6669 16.6458 19.469 16.4677 19.0472C16.2905 18.6253 16.4883 18.1397 16.9102 17.9615C17.2908 17.8003 17.6592 17.5987 18.0117 17.3615C18.3586 17.1272 18.6849 16.8581 18.9839 16.559C19.283 16.26 19.5521 15.9346 19.7864 15.5868C20.0236 15.2343 20.2252 14.865 20.3864 14.4853C20.5542 14.0887 20.6836 13.6725 20.7708 13.2431C20.8533 12.8334 20.8964 12.3984 20.8964 11.9409C20.8964 11.4834 20.8524 11.0484 20.7708 10.6387C20.6846 10.2103 20.5543 9.79403 20.3864 9.39745C20.2252 9.01684 20.0236 8.64839 19.7864 8.2959C19.5521 7.94903 19.283 7.62277 18.9839 7.32371C18.6849 7.02464 18.3586 6.75558 18.0117 6.5212C17.6592 6.28401 17.2899 6.08245 16.9102 5.9212C16.4883 5.74307 16.2896 5.25652 16.4677 4.83558C16.6458 4.41371 17.1323 4.2159 17.5533 4.39307C18.0492 4.60307 18.5142 4.85432 18.9417 5.14307C19.3823 5.44026 19.7902 5.77681 20.1605 6.14713C20.5308 6.51745 20.8673 6.92526 21.1645 7.36588C21.4523 7.79336 21.7045 8.25839 21.9145 8.75432C22.1245 9.24932 22.2867 9.77152 22.3964 10.3143C22.5042 10.8515 22.5605 11.3953 22.5605 11.9418C22.5605 12.4874 22.5042 13.0321 22.3955 13.5693C22.2858 14.1121 22.1236 14.6343 21.9136 15.1293C21.7036 15.6252 21.4514 16.0902 21.1636 16.5168C20.8664 16.9574 20.5299 17.3652 20.1595 17.7355C19.7892 18.1049 19.3814 18.4415 18.9408 18.7396C18.5133 19.0274 18.0492 19.2796 17.5533 19.4896L17.5533 19.4897Z" fill="white"/>
<path d="M11.0694 4.12871C9.41287 5.37559 7.75526 6.62351 6.09878 7.87127L2.87198 7.87034C2.08543 7.87034 1.44043 8.51534 1.44043 9.30189V14.698C1.44043 15.4855 2.08543 16.1296 2.87198 16.1296H6.09782C7.75437 17.3765 9.41198 18.6244 11.0685 19.8722C11.8241 20.4403 12.6988 20.3494 12.6988 19.3631V4.6379C12.6997 3.65164 11.825 3.55977 11.0694 4.12883L11.0694 4.12871Z" fill="white"/>
</svg>
